<svg width="72" height="76" viewBox="0 0 72 76" fill="none" xmlns="http://www.w3.org/2000/svg">
<path d="M66.2812 59.3594C66.2812 59.3594 65.9219 64.7344 61.0156 64.7344C57.2344 64.7344 54.6563 61.8594 52.25 58.1094C50.6875 55.3281 46.7031 49.2344 46.7031 49.2344C44.1875 45.6562 41.1875 42.6094 36.8906 41.6406C31.7862 40.5688 26.4653 41.4556 21.9844 44.125C21.5971 44.3625 21.3121 44.7358 21.185 45.1719C21.0579 45.6081 21.0978 46.076 21.2969 46.4844L21.8125 47.5469C21.9665 47.9423 22.249 48.2744 22.6146 48.4898C22.9802 48.7052 23.4076 48.7913 23.8281 48.7344C25.7093 48.4814 27.6222 48.6089 29.4531 49.1094C32.5781 49.8281 34.9531 54.1094 37.7031 59.0312C35.8598 59.9747 33.8207 60.4724 31.75 60.4844C21.5469 60.4844 13.2656 48.2656 13.2656 33.2031C13.2656 18.1406 21.5469 5.92188 31.75 5.92188C41.9531 5.92188 50.2187 18.125 50.2187 33.2031C50.219 35.3858 50.0414 37.5649 49.6875 39.7187C49.5333 40.6236 49.5944 41.552 49.8658 42.4288C50.1373 43.3057 50.6115 44.1062 51.25 44.7656C53.0102 46.6104 54.6097 48.602 56.0312 50.7188C56.1619 50.9186 56.3404 51.0828 56.5504 51.1964C56.7605 51.3101 56.9956 51.3695 57.2344 51.3695C57.4732 51.3695 57.7083 51.3101 57.9183 51.1964C58.1284 51.0828 58.3068 50.9186 58.4375 50.7188C61.6648 45.4642 63.3688 39.4164 63.3594 33.25C63.4687 15.125 49.2812 0.5 31.7812 0.5C14.2812 0.5 0.0625 15.125 0.0625 33.1719C0.0625 51.2188 14.2812 65.8438 31.7812 65.8438C34.8759 65.8468 37.953 65.3779 40.9062 64.4531C44.5781 70.2656 49.2188 75.5 56.5312 75.5C71.2969 75.5 71.9375 59.3594 71.9375 59.3594H66.2812Z" fill="url(#paint0_linear_246_51)"/>
<defs>
<linearGradient id="paint0_linear_246_51" x1="36" y1="0.5" x2="36" y2="75.5" gradientUnits="userSpaceOnUse">
<stop offset="0.721154"/>
<stop offset="1" stop-color="#33383F"/>
</linearGradient>
</defs>
</svg>
