<svg width="32" height="32" viewBox="0 0 32 32" fill="none" xmlns="http://www.w3.org/2000/svg">
<path d="M6.26234 24.0751C7.60817 23.0459 9.11234 22.2347 10.7748 21.6415C12.4373 21.0483 14.179 20.7511 15.9998 20.7501C17.8207 20.749 19.5623 21.0462 21.2248 21.6415C22.8873 22.2368 24.3915 23.048 25.7373 24.0751C26.661 22.9931 27.3803 21.7661 27.8954 20.3938C28.4105 19.0216 28.6676 17.557 28.6665 16.0001C28.6665 12.4904 27.4331 9.50155 24.9663 7.03366C22.4994 4.56578 19.5106 3.33236 15.9998 3.33341C12.4891 3.33447 9.50026 4.56841 7.03342 7.03525C4.56659 9.50208 3.33317 12.4904 3.33317 16.0001C3.33317 17.557 3.59073 19.0216 4.10584 20.3938C4.62095 21.7661 5.33978 22.9931 6.26234 24.0751ZM15.9998 17.5834C14.4429 17.5834 13.1298 17.0493 12.0605 15.9811C10.9912 14.9129 10.4571 13.5997 10.4582 12.0417C10.4592 10.4837 10.9939 9.17064 12.0621 8.10242C13.1303 7.03419 14.4429 6.50008 15.9998 6.50008C17.5568 6.50008 18.8699 7.03472 19.9392 8.104C21.0084 9.17328 21.5426 10.4859 21.5415 12.0417C21.5405 13.5976 21.0063 14.9107 19.9392 15.9811C18.872 17.0514 17.5589 17.5855 15.9998 17.5834ZM15.9998 31.8334C13.8096 31.8334 11.7512 31.4175 9.82484 30.5857C7.89845 29.754 6.22276 28.6261 4.79776 27.2022C3.37276 25.7782 2.24489 24.1025 1.41417 22.1751C0.583451 20.2476 0.167561 18.1893 0.166506 16.0001C0.16545 13.8109 0.581339 11.7525 1.41417 9.82508C2.24701 7.89764 3.37487 6.22194 4.79776 4.798C6.22064 3.37405 7.89634 2.24619 9.82484 1.41441C11.7533 0.582637 13.8117 0.166748 15.9998 0.166748C18.188 0.166748 20.2463 0.582637 22.1748 1.41441C24.1033 2.24619 25.779 3.37405 27.2019 4.798C28.6248 6.22194 29.7532 7.89764 30.5871 9.82508C31.421 11.7525 31.8363 13.8109 31.8332 16.0001C31.83 18.1893 31.4141 20.2476 30.5855 22.1751C29.7569 24.1025 28.629 25.7782 27.2019 27.2022C25.7748 28.6261 24.0991 29.7545 22.1748 30.5873C20.2506 31.4202 18.1922 31.8355 15.9998 31.8334Z" fill="black"/>
</svg>
