<?xml version="1.0" encoding="UTF-8" standalone="no"?>
<svg
   viewBox="0 0 640 640"
   version="1.1"
   id="svg1"
   sodipodi:docname="user-group-solid-full.svg"
   inkscape:export-filename="user-group-solid-full.png"
   inkscape:export-xdpi="96"
   inkscape:export-ydpi="96"
   inkscape:version="1.4 (86a8ad7, 2024-10-11)"
   xmlns:inkscape="http://www.inkscape.org/namespaces/inkscape"
   xmlns:sodipodi="http://sodipodi.sourceforge.net/DTD/sodipodi-0.dtd"
   xmlns="http://www.w3.org/2000/svg"
   xmlns:svg="http://www.w3.org/2000/svg">
  <defs
     id="defs1" />
  <sodipodi:namedview
     id="namedview1"
     pagecolor="#ffffff"
     bordercolor="#000000"
     borderopacity="0.25"
     inkscape:showpageshadow="2"
     inkscape:pageopacity="0.0"
     inkscape:pagecheckerboard="0"
     inkscape:deskcolor="#d1d1d1"
     inkscape:zoom="0.63046875"
     inkscape:cx="210.16109"
     inkscape:cy="284.7088"
     inkscape:window-width="1920"
     inkscape:window-height="1046"
     inkscape:window-x="-11"
     inkscape:window-y="-11"
     inkscape:window-maximized="1"
     inkscape:current-layer="svg1" />
  <!--!Font Awesome Free 7.0.0 by @fontawesome - https://fontawesome.com License - https://fontawesome.com/license/free Copyright 2025 Fonticons, Inc.-->
  <path
     d="M96 192C96 130.1 146.1 80 208 80C269.9 80 320 130.1 320 192C320 253.9 269.9 304 208 304C146.1 304 96 253.9 96 192zM32 528C32 430.8 110.8 352 208 352C305.2 352 384 430.8 384 528L384 534C384 557.2 365.2 576 342 576L74 576C50.8 576 32 557.2 32 534L32 528zM464 128C517 128 560 171 560 224C560 277 517 320 464 320C411 320 368 277 368 224C368 171 411 128 464 128zM464 368C543.5 368 608 432.5 608 512L608 534.4C608 557.4 589.4 576 566.4 576L421.6 576C428.2 563.5 432 549.2 432 534L432 528C432 476.5 414.6 429.1 385.5 391.3C408.1 376.6 435.1 368 464 368z"
     id="path1"
     style="fill:none;stroke:#000000;stroke-width:32;stroke-dasharray:none" />
</svg>
